/* XPM */
static char * close_xpm[] = {
"10 11 2 1",
" 	c None",
".	c #000000",
"          ",
"..      ..",
"...    ...",
" ...  ... ",
"  ......  ",
"   ....   ",
"   ....   ",
"  ......  ",
" ...  ... ",
"...    ...",
"..      .."};
